<svg width="512" height="512" viewBox="0 0 512 512" fill="none" xmlns="http://www.w3.org/2000/svg">
<path fill-rule="evenodd" clip-rule="evenodd" d="M41 99C41 78.0132 58.0132 61 79 61H251C230.013 61 213 78.0132 213 99V143C213 183.317 180.317 216 140 216H79C58.0132 216 41 233.013 41 254V99ZM253 466H425C445.987 466 463 448.987 463 428V273C463 293.987 445.987 311 425 311H364C323.683 311 291 343.683 291 384V428C291 448.987 273.987 466 253 466Z" fill="#D62A24"/>
<path fill-rule="evenodd" clip-rule="evenodd" d="M463 99C463 78.0132 445.987 61 425 61H253C273.987 61 291 78.0132 291 99V143C291 183.317 323.683 216 364 216H425C445.987 216 463 233.013 463 254V99ZM251 466H79C58.0132 466 41 448.987 41 428V273C41 293.987 58.0132 311 79 311H140C180.317 311 213 343.683 213 384V428C213 448.987 230.013 466 251 466Z" fill="#2492D6"/>
</svg>
